<?xml version="1.0" encoding="UTF-8" standalone="no"?>
<!-- Created with Inkscape (http://www.inkscape.org/) -->

<svg
   xmlns:dc="http://purl.org/dc/elements/1.1/"
   xmlns:cc="http://creativecommons.org/ns#"
   xmlns:rdf="http://www.w3.org/1999/02/22-rdf-syntax-ns#"
   xmlns:svg="http://www.w3.org/2000/svg"
   xmlns="http://www.w3.org/2000/svg"
   xmlns:sodipodi="http://sodipodi.sourceforge.net/DTD/sodipodi-0.dtd"
   xmlns:inkscape="http://www.inkscape.org/namespaces/inkscape"
   id="svg4136"
   version="1.1"
   inkscape:version="0.91 r13725"
   width="142mm"
   height="62mm"
   viewBox="0 0 503.14962 219.68503"
   sodipodi:docname="LOGO Schrift Vektor.svg">
  <metadata
     id="metadata4142">
    <rdf:RDF>
      <cc:Work
         rdf:about="">
        <dc:format>image/svg+xml</dc:format>
        <dc:type
           rdf:resource="http://purl.org/dc/dcmitype/StillImage" />
        <dc:title></dc:title>
      </cc:Work>
    </rdf:RDF>
  </metadata>
  <defs
     id="defs4140" />
  <sodipodi:namedview
     pagecolor="#ffffff"
     bordercolor="#666666"
     borderopacity="1"
     objecttolerance="10"
     gridtolerance="10"
     guidetolerance="10"
     inkscape:pageopacity="0"
     inkscape:pageshadow="2"
     inkscape:window-width="1280"
     inkscape:window-height="961"
     id="namedview4138"
     showgrid="false"
     units="mm"
     inkscape:zoom="0.8644841"
     inkscape:cx="169.34012"
     inkscape:cy="212.83471"
     inkscape:window-x="-8"
     inkscape:window-y="-8"
     inkscape:window-maximized="1"
     inkscape:current-layer="svg4136" />
  <path
     style="fill:#000000"
     d="m 196.96847,215.00335 c 0.61774,-1.9858 3.53767,-21.12908 3.89432,-25.53144 0.18839,-2.32548 0.3538,-4.30132 0.36758,-4.39076 0.0138,-0.0894 0.4414,-0.16262 0.95031,-0.16262 1.31175,0 2.17553,3.18988 2.99442,11.0582 0.39095,3.75654 0.80442,7.56187 0.91882,8.45628 1.01064,7.9016 1.07495,10.53591 0.25051,10.26254 -0.53757,-0.17823 -1.02613,-1.93743 -1.30086,-4.68402 -0.24198,-2.41924 -0.59829,-4.55693 -0.7918,-4.75044 -0.19351,-0.19349 -1.08205,-0.43198 -1.97455,-0.52995 -1.83691,-0.20164 -1.86214,-0.14585 -3.02818,6.69456 -0.55219,3.23933 -1.09055,4.716 -1.7193,4.716 -0.57303,0 -0.78294,-0.42573 -0.56127,-1.13835 z m 7.26507,-14.71613 c -0.18146,-1.47635 -0.51191,-4.40072 -0.73437,-6.49859 -0.50146,-4.72944 -1.18674,-4.09634 -2.15201,1.98817 -0.9926,6.25683 -0.94206,7.21547 0.3961,7.51274 2.25689,0.50137 2.83522,-0.19586 2.49028,-3.00232 z m 19.81775,15.23568 c -1.25504,-0.79391 -1.88956,-7.45206 -1.94022,-20.35927 -0.0253,-6.42322 0.20244,-10.2451 0.61026,-10.2451 0.35776,0 0.64374,0.51225 0.63548,1.13834 -0.12462,9.45447 0.62286,27.70047 1.15666,28.23427 0.38612,0.38611 1.53881,0.49285 2.66095,0.24638 1.48178,-0.32546 2.14508,-0.95556 2.6371,-2.50512 0.49488,-1.55854 1.36608,-17.96003 1.36608,-25.718 0,-0.40997 0.32072,-0.74539 0.7127,-0.74539 0.99372,0 0.29295,25.1786 -0.76542,27.50148 -1.07878,2.36767 -5.03774,3.74024 -7.07359,2.45241 z m 21.36473,0.32977 c -0.15896,-0.15897 0.50304,-5.06198 1.47111,-10.89559 0.96807,-5.8336 1.82558,-12.36286 1.90555,-14.50945 0.17195,-4.61493 0.43958,-5.5291 1.61869,-5.5291 1.15263,0 2.06457,3.52859 2.86841,11.09868 0.35852,3.3765 0.77931,7.16362 0.93504,8.4158 0.98538,7.92218 1.04481,10.52092 0.23451,10.25316 -0.50839,-0.168 -0.97696,-1.96405 -1.20909,-4.6345 -0.42525,-4.89225 -1.09363,-5.9615 -3.36937,-5.39032 -1.41247,0.3545 -1.64825,0.93976 -2.39169,5.93681 -0.74477,5.00601 -1.18654,6.13113 -2.06316,5.25451 z m 7.01019,-15.48518 c -0.20078,-1.5205 -0.5542,-4.30131 -0.78539,-6.17958 -0.23118,-1.87827 -0.62693,-3.41504 -0.87946,-3.41504 -0.39364,0 -2.02072,9.32405 -2.02072,11.57983 0,0.4386 0.88551,0.77934 2.0253,0.77934 2.00633,0 2.02189,-0.0259 1.66027,-2.76455 z m 12.94928,15.00233 c -0.14768,-0.46988 -0.40757,-3.2243 -0.57753,-6.12093 -0.29537,-5.03403 -1.66028,-9.25067 -3.06437,-9.46683 -0.34858,-0.0537 -0.96086,-0.12685 -1.36061,-0.16262 -0.50485,-0.0452 -0.69327,2.3686 -0.61692,7.90336 0.0719,5.20899 -0.12697,7.96841 -0.57413,7.96841 -0.38987,0 -0.68974,-1.46867 -0.69728,-3.41503 -0.008,-1.87827 -0.15432,-8.61076 -0.32677,-14.9611 -0.20341,-7.49038 -0.0846,-11.54607 0.33846,-11.54607 0.64849,0 0.78509,1.06259 0.81536,6.34221 0.009,1.5205 0.20513,2.76455 0.43649,2.76455 0.69077,0 2.46959,-3.42436 2.95277,-5.68427 0.6215,-2.9069 1.65127,-3.31729 1.65127,-0.65806 0,1.33819 -0.86186,3.62198 -2.21469,5.86857 -2.07809,3.45101 -2.13691,3.70255 -0.95372,4.07807 1.90676,0.60519 3.76803,2.8979 4.47054,5.50679 0.91065,3.38191 1.32217,11.61373 0.60282,12.05831 -0.33725,0.20844 -0.73401,-0.005 -0.88169,-0.47536 z m 8.70077,-0.0412 c -0.0183,-0.44721 -0.004,-4.70458 0.0317,-9.46082 0.0912,-12.1726 -0.58533,-19.81186 -1.71611,-19.37794 -1.25596,0.48196 -3.91595,-0.57842 -2.94941,-1.17576 1.01965,-0.63019 6.58272,-0.71495 8.4074,-0.1281 2.05887,0.66216 1.82558,1.77113 -0.32524,1.546 l -1.78884,-0.18723 -0.13556,8.13103 c -0.0746,4.47207 -0.14775,11.13139 -0.16262,14.79848 -0.0162,3.99327 -0.28796,6.66745 -0.67755,6.66745 -0.35776,0 -0.66543,-0.3659 -0.68369,-0.8131 z m 10.53144,-0.29705 c -1.33693,-1.09504 -1.45313,-1.90415 -1.89572,-13.20047 -0.50224,-12.81883 -0.36365,-16.91255 0.57257,-16.91255 0.32019,0 0.62253,4.02486 0.67189,8.94414 0.0493,4.91927 0.16103,9.82229 0.24817,10.89558 0.0872,1.0733 0.19313,3.60325 0.23551,5.62212 0.0566,2.6946 0.35027,3.77552 1.10447,4.06495 1.7921,0.68769 4.04185,-0.30804 4.74586,-2.10049 0.50898,-1.2959 1.38205,-17.78638 1.38205,-26.10432 0,-0.36931 0.32099,-0.67148 0.71332,-0.67148 0.89304,0 0.30504,24.96699 -0.64696,27.47097 -0.74141,1.95005 -1.0175,2.15364 -3.69975,2.72818 -1.44801,0.31016 -2.40394,0.10495 -3.43141,-0.73661 z m 11.50725,0.62229 c -0.061,-0.26833 -0.13418,-7.29327 -0.16262,-15.61098 l -0.0517,-15.1231 1.51363,-6.2e-4 c 0.83249,-3.4e-4 2.36926,0.85503 3.41504,1.90081 2.94082,2.94081 2.533,6.58747 -1.18255,10.57403 l -1.62401,1.74248 1.39195,1.95482 c 1.99358,2.79972 3.14727,6.45914 3.41147,10.82093 0.15917,2.62774 -0.0201,3.87709 -0.58332,4.06567 -0.57342,0.19199 -0.8131,-0.62501 -0.8131,-2.77166 0,-3.66799 -1.64976,-9.6645 -2.95749,-10.74982 -0.81723,-0.67825 -0.94539,0.19614 -0.94539,6.45036 0,4.38964 -0.25582,7.23495 -0.65048,7.23495 -0.35776,0 -0.70041,-0.21954 -0.76141,-0.48787 z m 5.0588,-23.39516 c 0.33109,-1.76481 0.11406,-2.52874 -1.07915,-3.79887 -0.82147,-0.8744 -1.73527,-1.58982 -2.03066,-1.58982 -0.29541,0 -0.5371,2.39276 -0.5371,5.31725 l 0,5.31725 1.61625,-1.51839 c 0.88894,-0.83511 1.80273,-2.51245 2.03066,-3.72741 z m -116.93074,19.87516 c -0.12397,-1.84658 -0.2254,-8.35954 -0.2254,-14.47324 0,-9.4471 0.14649,-11.11585 0.97572,-11.11585 0.53665,0 1.7704,1.5684 2.74166,3.48535 l 1.76594,3.48535 1.63431,-3.6955 c 0.89888,-2.03252 1.91535,-3.52181 2.25882,-3.30954 0.98448,0.60844 0.93679,29.16615 -0.0481,28.83783 -0.57855,-0.19285 -0.76666,-3.47378 -0.71655,-12.4976 0.0374,-6.72986 -0.15251,-11.98095 -0.42196,-11.66908 -0.26946,0.31188 -0.8493,1.82971 -1.28856,3.37297 -0.43925,1.54326 -1.11129,2.70171 -1.49342,2.57433 -0.38213,-0.12737 -1.29771,-1.82911 -2.03465,-3.78165 l -1.33989,-3.55009 -0.49774,2.27669 c -0.27377,1.25218 -0.32015,7.03334 -0.1031,12.84703 0.27062,7.2479 0.17837,10.57034 -0.29349,10.57034 -0.3785,0 -0.78961,-1.51083 -0.91358,-3.35739 z m 25.39844,2.54428 c -0.0386,-0.4472 -0.0555,-1.69125 -0.0374,-2.76455 0.0181,-1.07329 0.0752,-7.29353 0.12717,-13.82275 0.0519,-6.52922 0.34066,-11.87131 0.64172,-11.87131 0.69252,0 2.20056,5.22238 3.56891,12.35917 0.58305,3.041 1.39086,6.38714 1.79514,7.43587 l 0.73505,1.90677 0.51401,-1.90677 c 0.28271,-1.04873 0.39433,-5.93163 0.24802,-10.85091 -0.23131,-7.77799 -0.13388,-8.94413 0.74732,-8.94413 0.89623,0 0.97711,1.65447 0.69994,14.31902 -0.36424,16.64377 -0.78346,18.27877 -2.81634,10.98392 -0.53825,-1.93148 -1.59005,-5.99987 -2.33735,-9.04088 -0.74729,-3.041 -1.54569,-5.96817 -1.77424,-6.50482 -0.22854,-0.53665 -0.49614,3.63457 -0.59466,9.26938 -0.10657,6.09592 -0.43589,10.2451 -0.81311,10.2451 -0.34868,0 -0.66556,-0.3659 -0.70419,-0.81311 z m 26.44571,0.21268 c -0.44985,-0.72787 -0.52781,-29.36697 -0.0812,-29.81362 0.58213,-0.58212 6.2298,0.5633 6.2298,1.26349 0,0.41989 -0.75735,0.54047 -1.92622,0.30669 -1.05943,-0.21188 -2.10101,-0.10245 -2.31464,0.24324 -0.21364,0.34567 -0.52923,2.65442 -0.70134,5.13058 -0.28525,4.10399 -0.19561,4.53934 1.01368,4.92315 1.68057,0.5334 1.72975,1.63435 0.073,1.63435 -1.19281,0 -1.23535,0.41007 -0.8775,8.45627 0.26276,5.9083 0.16206,8.45628 -0.33423,8.45628 -0.39067,0 -0.87729,-0.27019 -1.08139,-0.60043 z m 236.87699,-34.90131 c -1.86155,-0.7959 -4.34363,-1.80744 -5.51572,-2.24787 -2.81513,-1.05784 -7.74153,-6.60747 -8.69731,-9.79763 -0.63712,-2.12647 -0.56517,-3.18688 0.44194,-6.51311 2.02489,-6.68776 4.36652,-8.52578 7.33661,-5.75871 1.52055,1.41659 1.67052,2.63624 0.84685,6.88703 -0.40842,2.10775 -0.19837,3.57462 0.97802,6.83007 1.67096,4.62404 3.39321,6.42252 6.15031,6.42252 5.15472,0 6.24625,-6.32983 4.44504,-25.77679 -0.91354,-9.86307 -0.99805,-11.13675 -1.23556,-18.61866 -0.10332,-3.25381 -0.46025,-5.69172 -0.8334,-5.69172 -0.35899,0 -2.0865,0.88222 -3.83892,1.96049 -5.32295,3.27526 -7.96188,3.68286 -13.31559,2.05672 -6.47422,-1.96649 -7.45426,-2.95082 -10.28511,-10.33023 -2.20368,-5.74455 -2.41527,-6.82859 -2.15067,-11.01862 0.44288,-7.013 3.85405,-11.921198 10.72964,-15.438518 1.1555,-0.5911 3.65437,-2.34004 5.55303,-3.88652 4.81158,-3.91909 10.48085,-5.56215 19.01585,-5.51113 7.23764,0.0433 10.43592,0.9682 11.30704,3.27001 0.52145,1.37785 0.90026,4.47869 2.70159,22.114388 0.35442,3.46981 0.88093,6.94818 1.17003,7.72971 0.28911,0.78152 0.3209,2.77013 0.0707,4.4191 -0.25025,1.64897 -0.2353,3.58588 0.0333,4.30423 0.26853,0.71835 0.24531,1.95107 -0.0516,2.73938 -0.3153,0.83715 -0.17347,3.94847 0.341,7.48055 2.15919,14.82368 1.86007,32.16701 -0.63811,36.99795 -1.85467,3.58654 -5.717,6.98248 -8.75424,7.69715 -5.86888,1.38097 -12.12258,1.25442 -15.80459,-0.31979 z m -3.9308,-61.58284 c 5.11574,-3.77523 7.63658,-8.68579 8.59857,-16.74993 1.37054,-11.488958 1.4364,-13.009648 0.56348,-13.009648 -2.2883,0 -12.91213,8.69563 -14.5915,11.943168 -1.07109,2.07127 -1.89674,11.77605 -1.2284,14.43891 0.45983,1.83214 2.86672,4.84108 3.87243,4.84108 0.44118,0 1.6946,-0.65861 2.78542,-1.46358 z m -271.61304,12.77307 c -14.2322,-5.35033 -15.50673,-8.23111 -17.61985,-39.825498 -0.36701,-5.48749 -0.53083,-10.19806 -0.36405,-10.46792 0.63347,-1.025 1.63015,-29.14448 1.70774,-48.18074 0.0444,-10.91185 0.35457,-20.93741 0.68913,-22.27903 0.58281,-2.3372101 0.72294,-2.4391601 3.34775,-2.4356801 5.71319,0.008 9.8514,2.1203701 10.47143,5.3463001 0.15645,0.81407 1.3345,6.01725 2.61787,11.56262 1.72615,7.45857 2.31607,11.43839 2.26683,15.29263 -0.0367,2.86558 0.24276,6.37818 0.62085,7.80579 0.93615,3.53487 1.76557,19.64061 1.53223,29.75329 -0.22025,9.54562 -0.25675,9.502 5.77977,6.90516 9.46063,-4.06986 18.7347,2.93197 19.74881,14.91013 0.56611,6.686658 -0.0207,11.713718 -1.97848,16.950298 -0.89015,2.38089 -1.74108,4.91432 -1.89093,5.62985 -0.35992,1.71851 -6.39436,7.15267 -9.7428,8.77363 -4.02593,1.94892 -12.35727,2.07456 -17.1863,0.25917 z m 11.44621,-8.87018 c 4.28827,-4.70811 8.13944,-19.78087 6.58819,-25.784888 -1.97882,-7.65886 -3.4659,-8.08243 -6.47073,-1.84308 -1.20971,2.5119 -3.00272,5.430718 -3.98447,6.486278 -1.18531,1.27445 -1.67905,2.38916 -1.46965,3.3181 0.17342,0.7694 0.58835,4.21729 0.92205,7.66197 0.60634,6.25897 1.8284,11.62521 2.64741,11.62521 0.23878,0 1.03401,-0.65861 1.7672,-1.46359 z m -193.505691,7.92779 c -3.554184,-0.70039 -6.5607356,-2.84336 -7.6513896,-5.45366 -1.694388,-4.05525 -4.053981,-25.787858 -4.135357,-38.088048 -0.183457,-27.72908 0.436648,-39.36986 2.309452,-43.35322 1.813546,-3.85733 9.7806796,-4.24853 12.1727866,-0.5977 0.561692,0.85724 1.335072,3.523 1.718618,5.9239 0.383536,2.4009 1.170576,5.27985 1.748964,6.39767 0.861467,1.6649 1.088138,4.7964 1.253632,17.31873 0.111113,8.40749 0.395396,17.77444 0.631727,20.81544 0.236342,3.04101 0.378266,7.578128 0.315386,10.082488 -0.06288,2.50435 0.336343,8.3587 0.887161,13.00965 1.381333,11.66374 1.464887,11.06395 -1.808418,12.98223 -3.024581,1.77253 -3.210294,1.79654 -7.442562,0.96252 z m 44.796392,0.064 c -3.17943,-0.51422 -5.64471,-2.77234 -6.27311,-5.74598 -0.20432,-0.96687 -1.07346,-4.61118 -1.93143,-8.09846 -0.85796,-3.48729 -1.90432,-8.80235 -2.32524,-11.81126 -0.72497,-5.182228 -0.69136,-5.590408 0.63727,-7.740168 1.72814,-2.79621 3.41854,-3.9215 7.35945,-4.89917 4.23844,-1.0515 6.25487,-0.93281 9.54941,0.56206 l 2.84475,1.29078 -0.32533,3.73617 c -0.24411,2.803418 0.15892,5.684928 1.6143,11.541968 1.13387,4.56314 1.90113,9.29199 1.84696,11.38344 -0.051,1.96771 -0.10473,4.49717 -0.11948,5.62103 -0.0245,1.87014 -0.33065,2.15966 -3.61116,3.41503 -3.75233,1.43594 -4.5802,1.50246 -9.26639,0.74456 z m 58.161639,-0.91985 c -9.26688,-3.02993 -15.30126,-7.12076 -17.8681,-12.11315 -2.656869,-5.1675 -3.649949,-16.62219 -1.812499,-20.906228 1.693799,-3.94909 5.252289,-7.24704 11.000049,-10.19467 4.33446,-2.22285 6.34558,-2.85879 9.98152,-3.15632 4.3971,-0.35981 4.74314,-0.27704 10.08248,2.4114 7.07028,3.56002 7.77296,4.41833 7.79133,9.51688 0.0124,3.43429 -0.2445,4.32888 -1.77437,6.179578 -4.08267,4.9389 -7.91078,7.00699 -13.00965,7.02832 -3.26802,0.0137 -3.41504,0.0894 -3.41504,1.76037 0,3.00467 2.39381,7.00413 5.10385,8.52727 l 2.50181,1.40608 3.80378,-2.29051 c 4.30597,-2.59292 14.59733,-10.03408 17.53704,-12.68016 3.08752,-2.77909 4.49627,-3.31386 5.92711,-2.24991 1.19042,0.88516 1.17215,1.02174 -0.59392,4.43946 -1.00217,1.9394 -3.25807,5.30818 -5.01312,7.48617 -1.75504,2.17799 -3.91741,5.11073 -4.80528,6.51718 -2.15878,3.41975 -6.73575,7.07939 -10.772,8.61304 -4.3103,1.63778 -9.04538,1.5426 -14.66499,-0.2948 z m 5.91721,-30.385728 c 3.10229,-2.91444 1.29386,-6.73437 -4.28149,-9.04375 -2.89962,-1.20107 -3.98133,-0.34601 -4.99122,3.94543 -0.93231,3.96169 -0.38791,5.89534 1.95398,6.940308 1.87157,0.83512 5.41962,-0.0578 7.31873,-1.841988 z m 141.30609,30.318238 c -4.23739,-1.48205 -9.14659,-3.75253 -12.08584,-5.58966 -0.80514,-0.50325 -2.22575,-2.47214 -3.15688,-4.37532 -2.30977,-4.721 -2.06871,-11.58941 0.60953,-17.36702 3.43927,-7.419318 12.04076,-13.329898 21.31222,-14.644808 2.55286,-0.36207 4.85629,-0.791 5.11872,-0.9532 0.26243,-0.16219 0.67233,-2.83424 0.9109,-5.9379 0.23856,-3.10365 0.99397,-9.62649 1.67867,-14.49519 0.83165,-5.91364 1.14712,-10.96898 0.95033,-15.22881 -0.19349,-4.18834 0.0496,-8.21363 0.70852,-11.72973 0.55169,-2.94424 1.69308,-10.75894 2.53642,-17.36602 0.84334,-6.60708 1.86648,-12.8484801 2.27364,-13.8697701 0.63332,-1.58859 0.99017,-1.79417 2.46976,-1.42282 2.53441,0.6361 7.35773,4.2986401 7.35773,5.5870301 0,0.61106 0.44248,1.47828 0.98329,1.92711 0.54082,0.44883 1.54322,2.08185 2.22757,3.62892 1.16137,2.6255 1.20249,3.62719 0.61729,15.0378 -0.34483,6.7237 -0.76174,16.70552 -0.92649,22.18181 -0.19043,6.3302 -0.77493,12.25349 -1.60472,16.26207 -1.30659,6.31185 -1.40795,7.57128 -1.2927,16.06241 0.0339,2.50436 -0.0658,5.85864 -0.22169,7.45396 -0.45418,4.64732 2.23999,14.644288 4.62271,17.152938 1.07762,1.1346 2.58743,3.31706 3.3551,4.84996 1.22542,2.44683 1.29134,3.00267 0.54012,4.55338 -0.78067,1.6115 -1.17443,1.76522 -4.49281,1.75392 -2.95485,-0.01 -4.27136,-0.40663 -7.01804,-2.11406 -4.04024,-2.51155 -5.24591,-2.64327 -5.24591,-0.57308 0,1.48954 -2.75983,5.87676 -4.60755,7.32447 -1.49293,1.16973 -9.137,3.51019 -11.29296,3.45767 -1.09327,-0.0266 -3.94039,-0.73136 -6.32693,-1.56606 z m 7.77698,-10.92109 c 0.76335,-0.81254 2.46311,-3.80448 3.77724,-6.64873 l 2.38932,-5.17138 -0.8419,-6.36091 c -0.914,-6.905588 -1.20864,-7.246258 -4.55673,-5.268488 -2.41855,1.42866 -5.33477,6.845948 -5.88999,10.941498 -0.34704,2.55986 -0.0836,4.3951 1.23726,8.61889 0.923,2.95157 1.8624,5.36648 2.08754,5.36648 0.22514,0 1.03392,-0.66481 1.79726,-1.47736 z m 66.54564,11.90846 c -3.05851,-0.49465 -5.65235,-2.76482 -6.1936,-5.42073 -0.16058,-0.788 -1.04581,-4.56414 -1.96718,-8.39142 -0.92136,-3.8273 -2.00449,-9.28714 -2.40696,-12.13298 -0.68714,-4.859048 -0.64615,-5.312718 0.67305,-7.447208 1.86427,-3.01648 3.66628,-4.10809 8.39319,-5.08442 3.10211,-0.64073 4.49775,-0.64641 6.56603,-0.0268 3.98519,1.19399 4.79729,2.32487 4.46742,6.22095 -0.19314,2.281148 0.32112,5.743368 1.65148,11.118498 1.19044,4.80977 1.87994,9.17896 1.79643,11.38344 -0.0745,1.96771 -0.16313,4.50829 -0.19688,5.64574 -0.0559,1.88558 -0.37197,2.18694 -3.58116,3.41503 -3.68755,1.41114 -4.52325,1.47652 -9.20182,0.71985 z m 45.79292,-0.54758 c -1.4363,-0.60609 -2.99112,-1.34998 -3.45516,-1.65305 -1.92529,-1.2575 -3.3303,-8.14033 -3.42007,-16.75428 -0.0313,-3.00387 -0.46163,-7.8033 -0.95625,-10.66542 -1.22518,-7.089298 -0.30228,-10.937208 3.05401,-12.733448 2.15281,-1.15214 7.74826,-1.92995 9.01332,-1.25292 0.65423,0.35015 1.69763,1.96707 2.31864,3.59317 0.62102,1.62611 1.30511,2.85855 1.52022,2.73878 3.87362,-2.15693 7.40811,-3.27902 10.50935,-3.33637 5.1499,-0.0953 9.48477,2.84818 14.12271,9.58944 1.88404,2.738458 3.28168,4.978998 3.10589,4.978998 -0.17579,0 -0.0141,0.80348 0.35923,1.7855 0.37337,0.98203 0.73202,5.64437 0.797,10.36075 l 0.11816,8.57522 -1.84908,1.9343 c -3.88141,4.06029 -10.34913,2.41662 -13.82424,-3.5132 -0.9474,-1.61661 -1.56293,-3.09887 -1.36786,-3.29394 0.19507,-0.19507 -0.0392,-1.47119 -0.52074,-2.83581 -0.48513,-1.37503 -0.84,-4.75621 -0.796,-7.58437 0.057,-3.66182 -0.24211,-5.76737 -1.05887,-7.45468 -1.28586,-2.656328 -3.39957,-5.129078 -4.38436,-5.129078 -2.28685,0 -3.4064,11.438428 -1.62348,16.587308 0.49553,1.43106 1.10763,4.83346 1.36021,7.56091 l 0.45923,4.95897 -3.08942,2.35896 c -3.52373,2.69056 -6.12139,2.98658 -10.39244,1.18426 z M 53.725931,72.905422 c -0.42932,-0.42932 -0.78058,-1.1101 -0.78058,-1.51282 0,-1.23387 2.92471,-3.56095 4.47545,-3.56095 0.80543,0 2.04496,-0.31069 2.75448,-0.69041 2.9478,-1.57762 7.73972,1.90642 5.8138,4.22701 -1.6066,1.93584 -10.72189,3.07842 -12.26315,1.53717 z m 279.358019,-0.40348 c -1.00415,-1.10957 -0.95711,-1.29369 0.74788,-2.92717 1.00069,-0.95871 2.48128,-1.74312 3.29019,-1.74312 0.80891,0 2.05128,-0.31069 2.76081,-0.69041 2.94779,-1.57762 7.73971,1.90642 5.81379,4.22701 -1.86118,2.24259 -10.87583,3.05288 -12.61267,1.13369 z"
     id="path4146"
     inkscape:connector-curvature="0"
     sodipodi:nodetypes="sscssscscsssssssssssscssssssscssssssssscsssssscsscsscsscssssssccccscsscscscccsssccsssssscccscssscsscssssccssscscccssscsscscssscssscccssssscsssssscssccccsscssssscccssssssssssssssssssssccssssccssssssssssssscsccsssscsssssssssssssssssssssssssssssscssscssssssssssssscsssssssscssscssssscsssssssssssssccssscssscscscsssssccssssscsscssccscssscsccsscscsssccsssscssssssssssssss" />
</svg>
